<svg xmlns="http://www.w3.org/2000/svg" viewBox="0 0 1440 4200" width="1440" height="4200">
  <defs>
    <!-- Gradients -->
    <linearGradient id="bgGrad" x1="0" y1="0" x2="0" y2="1">
      <stop offset="0%" stop-color="#0A0E27"/>
      <stop offset="50%" stop-color="#0F1638"/>
      <stop offset="100%" stop-color="#0A0E27"/>
    </linearGradient>
    <linearGradient id="heroGrad" x1="0" y1="0" x2="1" y2="1">
      <stop offset="0%" stop-color="#2563EB"/>
      <stop offset="100%" stop-color="#7C3AED"/>
    </linearGradient>
    <linearGradient id="ctaGrad" x1="0" y1="0" x2="1" y2="0">
      <stop offset="0%" stop-color="#2563EB"/>
      <stop offset="100%" stop-color="#06B6D4"/>
    </linearGradient>
    <linearGradient id="cardGlow1" x1="0" y1="0" x2="1" y2="1">
      <stop offset="0%" stop-color="#2563EB" stop-opacity="0.15"/>
      <stop offset="100%" stop-color="#7C3AED" stop-opacity="0.05"/>
    </linearGradient>
    <linearGradient id="cardGlow2" x1="0" y1="0" x2="1" y2="1">
      <stop offset="0%" stop-color="#06B6D4" stop-opacity="0.15"/>
      <stop offset="100%" stop-color="#2563EB" stop-opacity="0.05"/>
    </linearGradient>
    <linearGradient id="cardGlow3" x1="0" y1="0" x2="1" y2="1">
      <stop offset="0%" stop-color="#7C3AED" stop-opacity="0.15"/>
      <stop offset="100%" stop-color="#EC4899" stop-opacity="0.05"/>
    </linearGradient>
    <linearGradient id="cardGlow4" x1="0" y1="0" x2="1" y2="1">
      <stop offset="0%" stop-color="#F97316" stop-opacity="0.15"/>
      <stop offset="100%" stop-color="#EAB308" stop-opacity="0.05"/>
    </linearGradient>
    <linearGradient id="orbGrad1" x1="0" y1="0" x2="1" y2="1">
      <stop offset="0%" stop-color="#2563EB" stop-opacity="0.3"/>
      <stop offset="100%" stop-color="#7C3AED" stop-opacity="0"/>
    </linearGradient>
    <linearGradient id="orbGrad2" x1="0" y1="0" x2="1" y2="1">
      <stop offset="0%" stop-color="#06B6D4" stop-opacity="0.2"/>
      <stop offset="100%" stop-color="#2563EB" stop-opacity="0"/>
    </linearGradient>
    <linearGradient id="lineGrad" x1="0" y1="0" x2="1" y2="0">
      <stop offset="0%" stop-color="#2563EB" stop-opacity="0"/>
      <stop offset="50%" stop-color="#2563EB" stop-opacity="0.5"/>
      <stop offset="100%" stop-color="#2563EB" stop-opacity="0"/>
    </linearGradient>

    <!-- Filters -->
    <filter id="glow">
      <feGaussianBlur stdDeviation="3" result="blur"/>
      <feMerge>
        <feMergeNode in="blur"/>
        <feMergeNode in="SourceGraphic"/>
      </feMerge>
    </filter>
    <filter id="softGlow">
      <feGaussianBlur stdDeviation="20" result="blur"/>
      <feMerge>
        <feMergeNode in="blur"/>
        <feMergeNode in="SourceGraphic"/>
      </feMerge>
    </filter>
    <filter id="cardShadow">
      <feDropShadow dx="0" dy="4" stdDeviation="12" flood-color="#000000" flood-opacity="0.3"/>
    </filter>

    <!-- Grid Pattern -->
    <pattern id="grid" width="60" height="60" patternUnits="userSpaceOnUse">
      <path d="M 60 0 L 0 0 0 60" fill="none" stroke="#1E293B" stroke-width="0.5" opacity="0.3"/>
    </pattern>

    <!-- Dot Pattern -->
    <pattern id="dots" width="30" height="30" patternUnits="userSpaceOnUse">
      <circle cx="15" cy="15" r="1" fill="#334155" opacity="0.4"/>
    </pattern>
  </defs>

  <!-- ==================== BACKGROUND ==================== -->
  <rect width="1440" height="4200" fill="url(#bgGrad)"/>
  <rect width="1440" height="4200" fill="url(#grid)" opacity="0.4"/>

  <!-- Background Orbs -->
  <circle cx="200" cy="300" r="300" fill="url(#orbGrad1)" opacity="0.4"/>
  <circle cx="1200" cy="600" r="250" fill="url(#orbGrad2)" opacity="0.3"/>
  <circle cx="400" cy="1800" r="350" fill="url(#orbGrad1)" opacity="0.2"/>
  <circle cx="1100" cy="2800" r="300" fill="url(#orbGrad2)" opacity="0.25"/>
  <circle cx="300" cy="3600" r="280" fill="url(#orbGrad1)" opacity="0.2"/>

  <!-- Floating particles -->
  <g opacity="0.6">
    <circle cx="150" cy="200" r="2" fill="#2563EB">
      <animate attributeName="cy" values="200;180;200" dur="4s" repeatCount="indefinite"/>
      <animate attributeName="opacity" values="0.6;1;0.6" dur="4s" repeatCount="indefinite"/>
    </circle>
    <circle cx="400" cy="500" r="1.5" fill="#06B6D4">
      <animate attributeName="cy" values="500;480;500" dur="3s" repeatCount="indefinite"/>
    </circle>
    <circle cx="900" cy="350" r="2" fill="#7C3AED">
      <animate attributeName="cy" values="350;330;350" dur="5s" repeatCount="indefinite"/>
    </circle>
    <circle cx="1200" cy="250" r="1.5" fill="#2563EB">
      <animate attributeName="cy" values="250;235;250" dur="3.5s" repeatCount="indefinite"/>
    </circle>
    <circle cx="700" cy="150" r="2" fill="#06B6D4">
      <animate attributeName="cy" values="150;130;150" dur="4.5s" repeatCount="indefinite"/>
    </circle>
    <circle cx="1050" cy="450" r="1" fill="#EC4899">
      <animate attributeName="cy" values="450;435;450" dur="3.2s" repeatCount="indefinite"/>
    </circle>
  </g>

  <!-- ==================== NAVBAR ==================== -->
  <g transform="translate(0, 20)">
    <rect x="60" y="0" width="1320" height="64" rx="16" fill="#0F1638" fill-opacity="0.8" stroke="#1E293B" stroke-width="1"/>

    <!-- Logo -->
    <g transform="translate(90, 14)">
      <rect width="36" height="36" rx="8" fill="url(#heroGrad)"/>
      <text x="18" y="25" font-family="system-ui, -apple-system, sans-serif" font-size="18" font-weight="700" fill="#FFFFFF" text-anchor="middle">O</text>
      <text x="48" y="28" font-family="system-ui, -apple-system, sans-serif" font-size="20" font-weight="700" fill="#E2E8F0">OpenClaw</text>
    </g>

    <!-- Nav Links -->
    <g font-family="system-ui, -apple-system, sans-serif" font-size="15" fill="#94A3B8">
      <text x="620" y="38">产品</text>
      <text x="720" y="38">解决方案</text>
      <text x="850" y="38">技能市场</text>
      <text x="970" y="38">文档</text>
      <text x="1060" y="38">定价</text>
    </g>

    <!-- CTA Button -->
    <rect x="1170" y="14" width="140" height="38" rx="10" fill="url(#ctaGrad)"/>
    <text x="1240" y="38" font-family="system-ui, -apple-system, sans-serif" font-size="14" font-weight="600" fill="#FFFFFF" text-anchor="middle">免费试用</text>
  </g>

  <!-- ==================== HERO SECTION ==================== -->
  <g transform="translate(0, 160)">
    <!-- Badge -->
    <g transform="translate(540, 60)">
      <rect width="360" height="36" rx="18" fill="#1E293B" stroke="#2563EB" stroke-width="1" stroke-opacity="0.5"/>
      <circle cx="20" cy="18" r="5" fill="#22C55E">
        <animate attributeName="opacity" values="1;0.4;1" dur="2s" repeatCount="indefinite"/>
      </circle>
      <text x="35" y="23" font-family="system-ui, -apple-system, sans-serif" font-size="13" fill="#94A3B8">全新发布 — OpenClaw 2.0 技能引擎</text>
    </g>

    <!-- Main Title -->
    <text x="720" y="170" font-family="system-ui, -apple-system, sans-serif" font-size="68" font-weight="800" fill="#F1F5F9" text-anchor="middle" letter-spacing="-2">
      让 AI 赋能每一个企业
    </text>
    <text x="720" y="250" font-family="system-ui, -apple-system, sans-serif" font-size="68" font-weight="800" text-anchor="middle" letter-spacing="-2">
      <tspan fill="#2563EB">智</tspan><tspan fill="#06B6D4">能</tspan><tspan fill="#7C3AED">转型</tspan><tspan fill="#F1F5F9">，从此刻开始</tspan>
    </text>

    <!-- Subtitle -->
    <text x="720" y="320" font-family="system-ui, -apple-system, sans-serif" font-size="20" fill="#64748B" text-anchor="middle">
      OpenClaw 帮助企业快速部署 AI 助手、优化业务流程、实现智能化转型
    </text>
    <text x="720" y="350" font-family="system-ui, -apple-system, sans-serif" font-size="20" fill="#64748B" text-anchor="middle">
      开箱即用的技能系统，让 AI 真正融入你的工作流
    </text>

    <!-- CTA Buttons -->
    <g transform="translate(470, 400)">
      <!-- Primary CTA -->
      <rect width="220" height="56" rx="14" fill="url(#ctaGrad)" filter="url(#glow)"/>
      <text x="110" y="34" font-family="system-ui, -apple-system, sans-serif" font-size="17" font-weight="600" fill="#FFFFFF" text-anchor="middle">开始免费使用</text>
      <path d="M165 28 L175 28 M171 22 L177 28 L171 34" stroke="#FFFFFF" stroke-width="2" fill="none" stroke-linecap="round"/>

      <!-- Secondary CTA -->
      <rect x="250" width="220" height="56" rx="14" fill="transparent" stroke="#334155" stroke-width="1.5"/>
      <text x="360" y="34" font-family="system-ui, -apple-system, sans-serif" font-size="17" font-weight="500" fill="#CBD5E1" text-anchor="middle">查看演示视频</text>
      <!-- Play icon -->
      <polygon points="316,22 316,34 326,28" fill="#94A3B8"/>
    </g>

    <!-- Stats Bar -->
    <g transform="translate(200, 520)">
      <rect width="1040" height="80" rx="16" fill="#111827" stroke="#1E293B" stroke-width="1"/>

      <g transform="translate(80, 0)">
        <text x="0" y="35" font-family="system-ui, -apple-system, sans-serif" font-size="28" font-weight="700" fill="#2563EB">500+</text>
        <text x="0" y="58" font-family="system-ui, -apple-system, sans-serif" font-size="13" fill="#64748B">企业客户</text>
      </g>

      <line x1="280" y1="20" x2="280" y2="60" stroke="#1E293B" stroke-width="1"/>

      <g transform="translate(340, 0)">
        <text x="0" y="35" font-family="system-ui, -apple-system, sans-serif" font-size="28" font-weight="700" fill="#06B6D4">2000+</text>
        <text x="0" y="58" font-family="system-ui, -apple-system, sans-serif" font-size="13" fill="#64748B">AI 技能模板</text>
      </g>

      <line x1="540" y1="20" x2="540" y2="60" stroke="#1E293B" stroke-width="1"/>

      <g transform="translate(600, 0)">
        <text x="0" y="35" font-family="system-ui, -apple-system, sans-serif" font-size="28" font-weight="700" fill="#7C3AED">99.9%</text>
        <text x="0" y="58" font-family="system-ui, -apple-system, sans-serif" font-size="13" fill="#64748B">服务可用性</text>
      </g>

      <line x1="800" y1="20" x2="800" y2="60" stroke="#1E293B" stroke-width="1"/>

      <g transform="translate(860, 0)">
        <text x="0" y="35" font-family="system-ui, -apple-system, sans-serif" font-size="28" font-weight="700" fill="#F97316">60%</text>
        <text x="0" y="58" font-family="system-ui, -apple-system, sans-serif" font-size="13" fill="#64748B">效率提升均值</text>
      </g>
    </g>

    <!-- Hero Illustration - Neural Network Diagram -->
    <g transform="translate(320, 660)" opacity="0.9">
      <rect width="800" height="320" rx="20" fill="#0F1638" stroke="#1E293B" stroke-width="1" filter="url(#cardShadow)"/>

      <!-- Terminal-style header -->
      <rect width="800" height="40" rx="20" fill="#111827"/>
      <rect y="20" width="800" height="20" fill="#111827"/>
      <circle cx="25" cy="20" r="6" fill="#EF4444"/>
      <circle cx="47" cy="20" r="6" fill="#F59E0B"/>
      <circle cx="69" cy="20" r="6" fill="#22C55E"/>
      <text x="400" y="25" font-family="monospace" font-size="12" fill="#64748B" text-anchor="middle">openclaw-dashboard — AI Workflow Engine</text>

      <!-- Network Nodes & Connections -->
      <!-- Input Layer -->
      <g filter="url(#glow)">
        <circle cx="120" cy="120" r="24" fill="#0F1638" stroke="#2563EB" stroke-width="2"/>
        <text x="120" y="125" font-family="monospace" font-size="10" fill="#2563EB" text-anchor="middle">数据</text>
        <circle cx="120" cy="200" r="24" fill="#0F1638" stroke="#2563EB" stroke-width="2"/>
        <text x="120" y="205" font-family="monospace" font-size="10" fill="#2563EB" text-anchor="middle">流程</text>
        <circle cx="120" cy="280" r="24" fill="#0F1638" stroke="#06B6D4" stroke-width="2"/>
        <text x="120" y="285" font-family="monospace" font-size="10" fill="#06B6D4" text-anchor="middle">需求</text>
      </g>

      <!-- Hidden Layer -->
      <g filter="url(#glow)">
        <circle cx="320" cy="140" r="28" fill="#0F1638" stroke="#7C3AED" stroke-width="2"/>
        <text x="320" y="137" font-family="monospace" font-size="9" fill="#7C3AED" text-anchor="middle">AI</text>
        <text x="320" y="150" font-family="monospace" font-size="9" fill="#7C3AED" text-anchor="middle">分析</text>
        <circle cx="320" cy="250" r="28" fill="#0F1638" stroke="#7C3AED" stroke-width="2"/>
        <text x="320" y="247" font-family="monospace" font-size="9" fill="#7C3AED" text-anchor="middle">技能</text>
        <text x="320" y="260" font-family="monospace" font-size="9" fill="#7C3AED" text-anchor="middle">匹配</text>
      </g>

      <!-- Processing Layer -->
      <g filter="url(#glow)">
        <circle cx="520" cy="160" r="30" fill="#0F1638" stroke="#06B6D4" stroke-width="2"/>
        <text x="520" y="157" font-family="monospace" font-size="9" fill="#06B6D4" text-anchor="middle">OpenClaw</text>
        <text x="520" y="170" font-family="monospace" font-size="9" fill="#06B6D4" text-anchor="middle">Engine</text>
        <circle cx="520" cy="260" r="24" fill="#0F1638" stroke="#22C55E" stroke-width="2"/>
        <text x="520" y="265" font-family="monospace" font-size="9" fill="#22C55E" text-anchor="middle">优化</text>
      </g>

      <!-- Output Layer -->
      <g filter="url(#glow)">
        <circle cx="680" cy="200" r="32" fill="#0F1638" stroke="#F97316" stroke-width="2.5"/>
        <text x="680" y="195" font-family="monospace" font-size="10" fill="#F97316" text-anchor="middle">AI</text>
        <text x="680" y="210" font-family="monospace" font-size="10" fill="#F97316" text-anchor="middle">助手</text>
      </g>

      <!-- Connections with animated dashes -->
      <g stroke-width="1.2" fill="none" opacity="0.5">
        <line x1="144" y1="120" x2="292" y2="140" stroke="#2563EB" stroke-dasharray="4 4">
          <animate attributeName="stroke-dashoffset" values="0;-8" dur="1s" repeatCount="indefinite"/>
        </line>
        <line x1="144" y1="120" x2="292" y2="250" stroke="#2563EB" stroke-dasharray="4 4">
          <animate attributeName="stroke-dashoffset" values="0;-8" dur="1.2s" repeatCount="indefinite"/>
        </line>
        <line x1="144" y1="200" x2="292" y2="140" stroke="#2563EB" stroke-dasharray="4 4">
          <animate attributeName="stroke-dashoffset" values="0;-8" dur="1.1s" repeatCount="indefinite"/>
        </line>
        <line x1="144" y1="200" x2="292" y2="250" stroke="#2563EB" stroke-dasharray="4 4">
          <animate attributeName="stroke-dashoffset" values="0;-8" dur="0.9s" repeatCount="indefinite"/>
        </line>
        <line x1="144" y1="280" x2="292" y2="250" stroke="#06B6D4" stroke-dasharray="4 4">
          <animate attributeName="stroke-dashoffset" values="0;-8" dur="1.3s" repeatCount="indefinite"/>
        </line>
        <line x1="348" y1="140" x2="490" y2="160" stroke="#7C3AED" stroke-dasharray="4 4">
          <animate attributeName="stroke-dashoffset" values="0;-8" dur="1s" repeatCount="indefinite"/>
        </line>
        <line x1="348" y1="250" x2="496" y2="260" stroke="#7C3AED" stroke-dasharray="4 4">
          <animate attributeName="stroke-dashoffset" values="0;-8" dur="1.1s" repeatCount="indefinite"/>
        </line>
        <line x1="348" y1="250" x2="490" y2="160" stroke="#7C3AED" stroke-dasharray="4 4">
          <animate attributeName="stroke-dashoffset" values="0;-8" dur="1.2s" repeatCount="indefinite"/>
        </line>
        <line x1="550" y1="160" x2="648" y2="200" stroke="#06B6D4" stroke-dasharray="4 4">
          <animate attributeName="stroke-dashoffset" values="0;-8" dur="0.8s" repeatCount="indefinite"/>
        </line>
        <line x1="544" y1="260" x2="648" y2="200" stroke="#22C55E" stroke-dasharray="4 4">
          <animate attributeName="stroke-dashoffset" values="0;-8" dur="1s" repeatCount="indefinite"/>
        </line>
      </g>
    </g>
  </g>

  <!-- Divider -->
  <rect x="0" y="1180" width="1440" height="1" fill="url(#lineGrad)"/>

  <!-- ==================== SECTION 1: AI TRANSFORMATION ==================== -->
  <g transform="translate(0, 1240)">
    <!-- Section Label -->
    <g transform="translate(620, 0)">
      <rect width="200" height="32" rx="16" fill="#1E293B" stroke="#2563EB" stroke-width="0.5"/>
      <text x="100" y="21" font-family="system-ui, -apple-system, sans-serif" font-size="12" font-weight="500" fill="#2563EB" text-anchor="middle" letter-spacing="2">核心能力</text>
    </g>

    <text x="720" y="80" font-family="system-ui, -apple-system, sans-serif" font-size="44" font-weight="700" fill="#F1F5F9" text-anchor="middle">四大核心，驱动企业 AI 转型</text>
    <text x="720" y="120" font-family="system-ui, -apple-system, sans-serif" font-size="18" fill="#64748B" text-anchor="middle">从流程优化到智能助手，全方位赋能企业数字化升级</text>

    <!-- Card 1: AI Transformation -->
    <g transform="translate(80, 180)">
      <rect width="620" height="360" rx="20" fill="#111827" stroke="#1E293B" stroke-width="1" filter="url(#cardShadow)"/>
      <rect width="620" height="360" rx="20" fill="url(#cardGlow1)"/>

      <!-- Icon -->
      <g transform="translate(40, 40)">
        <rect width="56" height="56" rx="14" fill="#2563EB" fill-opacity="0.15" stroke="#2563EB" stroke-width="1" stroke-opacity="0.3"/>
        <!-- Brain/AI icon -->
        <g transform="translate(12, 12)" stroke="#2563EB" stroke-width="2" fill="none">
          <path d="M16 4 C12 4 8 6 8 10 C4 10 2 13 2 16 C2 20 5 22 8 22 L24 22 C27 22 30 20 30 16 C30 13 28 10 24 10 C24 6 20 4 16 4Z"/>
          <circle cx="12" cy="14" r="2" fill="#2563EB"/>
          <circle cx="20" cy="14" r="2" fill="#2563EB"/>
          <line x1="12" y1="14" x2="20" y2="14"/>
          <line x1="16" y1="10" x2="16" y2="18"/>
        </g>
      </g>

      <!-- Number -->
      <text x="560" y="80" font-family="system-ui, -apple-system, sans-serif" font-size="80" font-weight="800" fill="#2563EB" fill-opacity="0.08" text-anchor="middle">01</text>

      <!-- Content -->
      <text x="40" y="140" font-family="system-ui, -apple-system, sans-serif" font-size="26" font-weight="700" fill="#F1F5F9">企业 AI 转型</text>
      <text x="40" y="180" font-family="system-ui, -apple-system, sans-serif" font-size="15" fill="#94A3B8">帮助传统企业平滑过渡到 AI 驱动的业务模式</text>

      <!-- Feature list -->
      <g transform="translate(40, 210)" font-family="system-ui, -apple-system, sans-serif" font-size="14" fill="#64748B">
        <g transform="translate(0, 0)">
          <circle cx="6" cy="-4" r="3" fill="#22C55E"/>
          <text x="18" y="0">AI 就绪度评估 — 全面诊断企业数字化现状</text>
        </g>
        <g transform="translate(0, 32)">
          <circle cx="6" cy="-4" r="3" fill="#22C55E"/>
          <text x="18" y="0">渐进式部署方案 — 零中断上线 AI 能力</text>
        </g>
        <g transform="translate(0, 64)">
          <circle cx="6" cy="-4" r="3" fill="#22C55E"/>
          <text x="18" y="0">员工 AI 培训体系 — 全员掌握 AI 协作</text>
        </g>
        <g transform="translate(0, 96)">
          <circle cx="6" cy="-4" r="3" fill="#22C55E"/>
          <text x="18" y="0">ROI 量化追踪 — 实时展示转型效果</text>
        </g>
      </g>
    </g>

    <!-- Card 2: Process Optimization -->
    <g transform="translate(740, 180)">
      <rect width="620" height="360" rx="20" fill="#111827" stroke="#1E293B" stroke-width="1" filter="url(#cardShadow)"/>
      <rect width="620" height="360" rx="20" fill="url(#cardGlow2)"/>

      <!-- Icon -->
      <g transform="translate(40, 40)">
        <rect width="56" height="56" rx="14" fill="#06B6D4" fill-opacity="0.15" stroke="#06B6D4" stroke-width="1" stroke-opacity="0.3"/>
        <!-- Workflow/Process icon -->
        <g transform="translate(10, 10)" stroke="#06B6D4" stroke-width="2" fill="none">
          <rect x="0" y="8" width="12" height="12" rx="3"/>
          <rect x="24" y="0" width="12" height="12" rx="3"/>
          <rect x="24" y="20" width="12" height="12" rx="3"/>
          <line x1="12" y1="14" x2="24" y2="6"/>
          <line x1="12" y1="14" x2="24" y2="26"/>
        </g>
      </g>

      <!-- Number -->
      <text x="560" y="80" font-family="system-ui, -apple-system, sans-serif" font-size="80" font-weight="800" fill="#06B6D4" fill-opacity="0.08" text-anchor="middle">02</text>

      <!-- Content -->
      <text x="40" y="140" font-family="system-ui, -apple-system, sans-serif" font-size="26" font-weight="700" fill="#F1F5F9">流程智能优化</text>
      <text x="40" y="180" font-family="system-ui, -apple-system, sans-serif" font-size="15" fill="#94A3B8">AI 驱动的端到端业务流程分析与自动化优化</text>

      <!-- Feature list -->
      <g transform="translate(40, 210)" font-family="system-ui, -apple-system, sans-serif" font-size="14" fill="#64748B">
        <g transform="translate(0, 0)">
          <circle cx="6" cy="-4" r="3" fill="#22C55E"/>
          <text x="18" y="0">流程挖掘 — 自动识别瓶颈与冗余环节</text>
        </g>
        <g transform="translate(0, 32)">
          <circle cx="6" cy="-4" r="3" fill="#22C55E"/>
          <text x="18" y="0">智能编排 — AI 建议最优流程路径</text>
        </g>
        <g transform="translate(0, 64)">
          <circle cx="6" cy="-4" r="3" fill="#22C55E"/>
          <text x="18" y="0">RPA + AI — 自动化执行重复性任务</text>
        </g>
        <g transform="translate(0, 96)">
          <circle cx="6" cy="-4" r="3" fill="#22C55E"/>
          <text x="18" y="0">持续优化 — 实时监控并迭代改进</text>
        </g>
      </g>
    </g>

    <!-- Card 3: AI Assistant -->
    <g transform="translate(80, 580)">
      <rect width="620" height="360" rx="20" fill="#111827" stroke="#1E293B" stroke-width="1" filter="url(#cardShadow)"/>
      <rect width="620" height="360" rx="20" fill="url(#cardGlow3)"/>

      <!-- Icon -->
      <g transform="translate(40, 40)">
        <rect width="56" height="56" rx="14" fill="#7C3AED" fill-opacity="0.15" stroke="#7C3AED" stroke-width="1" stroke-opacity="0.3"/>
        <!-- Chat/Assistant icon -->
        <g transform="translate(10, 10)" stroke="#7C3AED" stroke-width="2" fill="none">
          <rect x="0" y="0" width="28" height="20" rx="4"/>
          <rect x="8" y="12" width="28" height="20" rx="4" fill="#0F1638"/>
          <circle cx="16" cy="22" r="1.5" fill="#7C3AED"/>
          <circle cx="22" cy="22" r="1.5" fill="#7C3AED"/>
          <circle cx="28" cy="22" r="1.5" fill="#7C3AED"/>
        </g>
      </g>

      <!-- Number -->
      <text x="560" y="80" font-family="system-ui, -apple-system, sans-serif" font-size="80" font-weight="800" fill="#7C3AED" fill-opacity="0.08" text-anchor="middle">03</text>

      <!-- Content -->
      <text x="40" y="140" font-family="system-ui, -apple-system, sans-serif" font-size="26" font-weight="700" fill="#F1F5F9">企业 AI 助手</text>
      <text x="40" y="180" font-family="system-ui, -apple-system, sans-serif" font-size="15" fill="#94A3B8">为企业定制专属 AI 助手，容器化部署、安全可控</text>

      <!-- Feature list -->
      <g transform="translate(40, 210)" font-family="system-ui, -apple-system, sans-serif" font-size="14" fill="#64748B">
        <g transform="translate(0, 0)">
          <circle cx="6" cy="-4" r="3" fill="#22C55E"/>
          <text x="18" y="0">私有化部署 — Docker/K8s 容器化交付</text>
        </g>
        <g transform="translate(0, 32)">
          <circle cx="6" cy="-4" r="3" fill="#22C55E"/>
          <text x="18" y="0">知识库接入 — 对接企业内部文档与数据</text>
        </g>
        <g transform="translate(0, 64)">
          <circle cx="6" cy="-4" r="3" fill="#22C55E"/>
          <text x="18" y="0">多端触达 — 飞书/钉钉/企微/Web 全覆盖</text>
        </g>
        <g transform="translate(0, 96)">
          <circle cx="6" cy="-4" r="3" fill="#22C55E"/>
          <text x="18" y="0">权限管控 — 角色级别数据访问控制</text>
        </g>
      </g>
    </g>

    <!-- Card 4: OpenClaw Skills -->
    <g transform="translate(740, 580)">
      <rect width="620" height="360" rx="20" fill="#111827" stroke="#1E293B" stroke-width="1" filter="url(#cardShadow)"/>
      <rect width="620" height="360" rx="20" fill="url(#cardGlow4)"/>

      <!-- Icon -->
      <g transform="translate(40, 40)">
        <rect width="56" height="56" rx="14" fill="#F97316" fill-opacity="0.15" stroke="#F97316" stroke-width="1" stroke-opacity="0.3"/>
        <!-- Skills/Plugin icon -->
        <g transform="translate(10, 10)" stroke="#F97316" stroke-width="2" fill="none">
          <path d="M8 2 L8 14 L20 14 L20 2 Z"/>
          <path d="M4 14 L4 30 L16 30" stroke-linecap="round"/>
          <path d="M24 14 L24 30 L16 30" stroke-linecap="round"/>
          <circle cx="14" cy="8" r="3" fill="#F97316"/>
          <line x1="14" y1="14" x2="14" y2="20"/>
          <path d="M10 24 L14 20 L18 24" stroke-linecap="round" stroke-linejoin="round"/>
        </g>
      </g>

      <!-- Number -->
      <text x="560" y="80" font-family="system-ui, -apple-system, sans-serif" font-size="80" font-weight="800" fill="#F97316" fill-opacity="0.08" text-anchor="middle">04</text>

      <!-- Content -->
      <text x="40" y="140" font-family="system-ui, -apple-system, sans-serif" font-size="26" font-weight="700" fill="#F1F5F9">OpenClaw 技能引擎</text>
      <text x="40" y="180" font-family="system-ui, -apple-system, sans-serif" font-size="15" fill="#94A3B8">模块化技能系统，即插即用、持续进化的 AI 能力</text>

      <!-- Feature list -->
      <g transform="translate(40, 210)" font-family="system-ui, -apple-system, sans-serif" font-size="14" fill="#64748B">
        <g transform="translate(0, 0)">
          <circle cx="6" cy="-4" r="3" fill="#22C55E"/>
          <text x="18" y="0">技能市场 — 2000+ 预置技能模板</text>
        </g>
        <g transform="translate(0, 32)">
          <circle cx="6" cy="-4" r="3" fill="#22C55E"/>
          <text x="18" y="0">自定义技能 — 低代码创建企业专属技能</text>
        </g>
        <g transform="translate(0, 64)">
          <circle cx="6" cy="-4" r="3" fill="#22C55E"/>
          <text x="18" y="0">技能编排 — 多技能串联构建复杂工作流</text>
        </g>
        <g transform="translate(0, 96)">
          <circle cx="6" cy="-4" r="3" fill="#22C55E"/>
          <text x="18" y="0">智能优化 — AI 自动调优技能参数与效果</text>
        </g>
      </g>
    </g>
  </g>

  <!-- Divider -->
  <rect x="0" y="2280" width="1440" height="1" fill="url(#lineGrad)"/>

  <!-- ==================== HOW IT WORKS ==================== -->
  <g transform="translate(0, 2340)">
    <g transform="translate(590, 0)">
      <rect width="260" height="32" rx="16" fill="#1E293B" stroke="#7C3AED" stroke-width="0.5"/>
      <text x="130" y="21" font-family="system-ui, -apple-system, sans-serif" font-size="12" font-weight="500" fill="#7C3AED" text-anchor="middle" letter-spacing="2">工作流程</text>
    </g>

    <text x="720" y="80" font-family="system-ui, -apple-system, sans-serif" font-size="44" font-weight="700" fill="#F1F5F9" text-anchor="middle">三步启动，即刻见效</text>

    <!-- Step 1 -->
    <g transform="translate(120, 150)">
      <rect width="360" height="280" rx="20" fill="#111827" stroke="#1E293B" stroke-width="1"/>

      <g transform="translate(40, 40)">
        <circle r="24" cx="24" cy="24" fill="#2563EB" fill-opacity="0.15" stroke="#2563EB" stroke-width="1.5"/>
        <text x="24" y="30" font-family="system-ui, -apple-system, sans-serif" font-size="20" font-weight="700" fill="#2563EB" text-anchor="middle">1</text>
      </g>

      <text x="40" y="120" font-family="system-ui, -apple-system, sans-serif" font-size="22" font-weight="700" fill="#F1F5F9">需求诊断</text>
      <text x="40" y="155" font-family="system-ui, -apple-system, sans-serif" font-size="14" fill="#64748B">
        <tspan x="40" dy="0">AI 驱动的企业诊断系统</tspan>
        <tspan x="40" dy="24">全面分析业务痛点与机会</tspan>
        <tspan x="40" dy="24">输出个性化转型路线图</tspan>
      </text>

      <!-- Progress bar -->
      <rect x="40" y="240" width="280" height="4" rx="2" fill="#1E293B"/>
      <rect x="40" y="240" width="280" height="4" rx="2" fill="#2563EB"/>
    </g>

    <!-- Arrow 1 -->
    <g transform="translate(500, 280)" opacity="0.4">
      <line x1="0" y1="0" x2="50" y2="0" stroke="#334155" stroke-width="2" stroke-dasharray="4 4"/>
      <polygon points="50,-5 60,0 50,5" fill="#334155"/>
    </g>

    <!-- Step 2 -->
    <g transform="translate(540, 150)">
      <rect width="360" height="280" rx="20" fill="#111827" stroke="#1E293B" stroke-width="1"/>

      <g transform="translate(40, 40)">
        <circle r="24" cx="24" cy="24" fill="#06B6D4" fill-opacity="0.15" stroke="#06B6D4" stroke-width="1.5"/>
        <text x="24" y="30" font-family="system-ui, -apple-system, sans-serif" font-size="20" font-weight="700" fill="#06B6D4" text-anchor="middle">2</text>
      </g>

      <text x="40" y="120" font-family="system-ui, -apple-system, sans-serif" font-size="22" font-weight="700" fill="#F1F5F9">部署上线</text>
      <text x="40" y="155" font-family="system-ui, -apple-system, sans-serif" font-size="14" fill="#64748B">
        <tspan x="40" dy="0">容器化一键部署到您的环境</tspan>
        <tspan x="40" dy="24">对接企业知识库与工作流</tspan>
        <tspan x="40" dy="24">配置技能并完成集成测试</tspan>
      </text>

      <!-- Progress bar -->
      <rect x="40" y="240" width="280" height="4" rx="2" fill="#1E293B"/>
      <rect x="40" y="240" width="190" height="4" rx="2" fill="#06B6D4"/>
    </g>

    <!-- Arrow 2 -->
    <g transform="translate(920, 280)" opacity="0.4">
      <line x1="0" y1="0" x2="50" y2="0" stroke="#334155" stroke-width="2" stroke-dasharray="4 4"/>
      <polygon points="50,-5 60,0 50,5" fill="#334155"/>
    </g>

    <!-- Step 3 -->
    <g transform="translate(960, 150)">
      <rect width="360" height="280" rx="20" fill="#111827" stroke="#1E293B" stroke-width="1"/>

      <g transform="translate(40, 40)">
        <circle r="24" cx="24" cy="24" fill="#22C55E" fill-opacity="0.15" stroke="#22C55E" stroke-width="1.5"/>
        <text x="24" y="30" font-family="system-ui, -apple-system, sans-serif" font-size="20" font-weight="700" fill="#22C55E" text-anchor="middle">3</text>
      </g>

      <text x="40" y="120" font-family="system-ui, -apple-system, sans-serif" font-size="22" font-weight="700" fill="#F1F5F9">持续进化</text>
      <text x="40" y="155" font-family="system-ui, -apple-system, sans-serif" font-size="14" fill="#64748B">
        <tspan x="40" dy="0">AI 持续学习企业知识</tspan>
        <tspan x="40" dy="24">技能自动优化与扩展</tspan>
        <tspan x="40" dy="24">效果数据实时追踪反馈</tspan>
      </text>

      <!-- Progress bar -->
      <rect x="40" y="240" width="280" height="4" rx="2" fill="#1E293B"/>
      <rect x="40" y="240" width="100" height="4" rx="2" fill="#22C55E">
        <animate attributeName="width" values="60;280;60" dur="3s" repeatCount="indefinite"/>
      </rect>
    </g>
  </g>

  <!-- Divider -->
  <rect x="0" y="2840" width="1440" height="1" fill="url(#lineGrad)"/>

  <!-- ==================== TESTIMONIALS / TRUST ==================== -->
  <g transform="translate(0, 2900)">
    <g transform="translate(560, 0)">
      <rect width="320" height="32" rx="16" fill="#1E293B" stroke="#06B6D4" stroke-width="0.5"/>
      <text x="160" y="21" font-family="system-ui, -apple-system, sans-serif" font-size="12" font-weight="500" fill="#06B6D4" text-anchor="middle" letter-spacing="2">客户评价</text>
    </g>

    <text x="720" y="80" font-family="system-ui, -apple-system, sans-serif" font-size="44" font-weight="700" fill="#F1F5F9" text-anchor="middle">他们已经在用 OpenClaw</text>

    <!-- Testimonial 1 -->
    <g transform="translate(80, 140)">
      <rect width="400" height="220" rx="16" fill="#111827" stroke="#1E293B" stroke-width="1"/>
      <!-- Quote mark -->
      <text x="30" y="55" font-family="Georgia, serif" font-size="48" fill="#2563EB" opacity="0.3">"</text>
      <text x="30" y="85" font-family="system-ui, -apple-system, sans-serif" font-size="14" fill="#94A3B8" line-height="1.6">
        <tspan x="30" dy="0">部署 OpenClaw 后，客服响应时间</tspan>
        <tspan x="30" dy="22">缩短了 70%，客户满意度显著提升。</tspan>
      </text>
      <line x1="30" y1="145" x2="370" y2="145" stroke="#1E293B" stroke-width="1"/>
      <circle cx="50" cy="175" r="18" fill="#2563EB" fill-opacity="0.2" stroke="#2563EB" stroke-width="1"/>
      <text x="50" y="180" font-family="system-ui, -apple-system, sans-serif" font-size="14" font-weight="600" fill="#2563EB" text-anchor="middle">李</text>
      <text x="80" y="172" font-family="system-ui, -apple-system, sans-serif" font-size="14" font-weight="600" fill="#E2E8F0">李明</text>
      <text x="80" y="192" font-family="system-ui, -apple-system, sans-serif" font-size="12" fill="#64748B">某电商平台 CTO</text>
    </g>

    <!-- Testimonial 2 -->
    <g transform="translate(520, 140)">
      <rect width="400" height="220" rx="16" fill="#111827" stroke="#1E293B" stroke-width="1"/>
      <text x="30" y="55" font-family="Georgia, serif" font-size="48" fill="#7C3AED" opacity="0.3">"</text>
      <text x="30" y="85" font-family="system-ui, -apple-system, sans-serif" font-size="14" fill="#94A3B8">
        <tspan x="30" dy="0">技能系统非常灵活，我们用低代码</tspan>
        <tspan x="30" dy="22">就搭建了整套审批自动化流程。</tspan>
      </text>
      <line x1="30" y1="145" x2="370" y2="145" stroke="#1E293B" stroke-width="1"/>
      <circle cx="50" cy="175" r="18" fill="#7C3AED" fill-opacity="0.2" stroke="#7C3AED" stroke-width="1"/>
      <text x="50" y="180" font-family="system-ui, -apple-system, sans-serif" font-size="14" font-weight="600" fill="#7C3AED" text-anchor="middle">张</text>
      <text x="80" y="172" font-family="system-ui, -apple-system, sans-serif" font-size="14" font-weight="600" fill="#E2E8F0">张薇</text>
      <text x="80" y="192" font-family="system-ui, -apple-system, sans-serif" font-size="12" fill="#64748B">某制造企业 数字化总监</text>
    </g>

    <!-- Testimonial 3 -->
    <g transform="translate(960, 140)">
      <rect width="400" height="220" rx="16" fill="#111827" stroke="#1E293B" stroke-width="1"/>
      <text x="30" y="55" font-family="Georgia, serif" font-size="48" fill="#06B6D4" opacity="0.3">"</text>
      <text x="30" y="85" font-family="system-ui, -apple-system, sans-serif" font-size="14" fill="#94A3B8">
        <tspan x="30" dy="0">OpenClaw 让我们在 2 周内就完成了</tspan>
        <tspan x="30" dy="22">AI 助手上线，速度超出预期。</tspan>
      </text>
      <line x1="30" y1="145" x2="370" y2="145" stroke="#1E293B" stroke-width="1"/>
      <circle cx="50" cy="175" r="18" fill="#06B6D4" fill-opacity="0.2" stroke="#06B6D4" stroke-width="1"/>
      <text x="50" y="180" font-family="system-ui, -apple-system, sans-serif" font-size="14" font-weight="600" fill="#06B6D4" text-anchor="middle">王</text>
      <text x="80" y="172" font-family="system-ui, -apple-system, sans-serif" font-size="14" font-weight="600" fill="#E2E8F0">王磊</text>
      <text x="80" y="192" font-family="system-ui, -apple-system, sans-serif" font-size="12" fill="#64748B">某金融科技公司 VP</text>
    </g>

    <!-- Trust Logos Bar -->
    <g transform="translate(200, 420)">
      <text x="520" y="0" font-family="system-ui, -apple-system, sans-serif" font-size="13" fill="#475569" text-anchor="middle" letter-spacing="3">受到行业领先企业的信赖</text>
      <g transform="translate(0, 30)" font-family="system-ui, -apple-system, sans-serif" font-size="18" font-weight="600" fill="#334155" opacity="0.6">
        <text x="60" y="0">TechCorp</text>
        <text x="240" y="0">FinanceAI</text>
        <text x="440" y="0">SmartMfg</text>
        <text x="640" y="0">DataFlow</text>
        <text x="840" y="0">CloudNet</text>
        <text x="1000" y="0">InnoHub</text>
      </g>
    </g>
  </g>

  <!-- Divider -->
  <rect x="0" y="3420" width="1440" height="1" fill="url(#lineGrad)"/>

  <!-- ==================== CTA SECTION ==================== -->
  <g transform="translate(0, 3480)">
    <g transform="translate(220, 40)">
      <rect width="1000" height="360" rx="24" fill="#111827" stroke="#1E293B" stroke-width="1"/>
      <rect width="1000" height="360" rx="24" fill="url(#cardGlow1)" opacity="0.5"/>

      <!-- Decorative elements -->
      <circle cx="900" cy="50" r="120" fill="#2563EB" opacity="0.03"/>
      <circle cx="100" cy="300" r="100" fill="#7C3AED" opacity="0.03"/>

      <!-- Grid overlay -->
      <rect width="1000" height="360" rx="24" fill="url(#dots)" opacity="0.3"/>

      <text x="500" y="100" font-family="system-ui, -apple-system, sans-serif" font-size="40" font-weight="700" fill="#F1F5F9" text-anchor="middle">准备好开启 AI 转型之旅？</text>
      <text x="500" y="150" font-family="system-ui, -apple-system, sans-serif" font-size="18" fill="#64748B" text-anchor="middle">14 天免费试用，无需信用卡，随时取消</text>

      <!-- CTA Buttons -->
      <g transform="translate(280, 200)">
        <rect width="220" height="56" rx="14" fill="url(#ctaGrad)" filter="url(#glow)"/>
        <text x="110" y="34" font-family="system-ui, -apple-system, sans-serif" font-size="17" font-weight="600" fill="#FFFFFF" text-anchor="middle">立即开始</text>

        <rect x="250" width="200" height="56" rx="14" fill="transparent" stroke="#334155" stroke-width="1.5"/>
        <text x="350" y="34" font-family="system-ui, -apple-system, sans-serif" font-size="17" font-weight="500" fill="#CBD5E1" text-anchor="middle">预约演示</text>
      </g>

      <!-- Bottom note -->
      <text x="500" y="310" font-family="system-ui, -apple-system, sans-serif" font-size="13" fill="#475569" text-anchor="middle">已有 500+ 企业选择 OpenClaw，平均 60% 效率提升</text>
    </g>
  </g>

  <!-- ==================== FOOTER ==================== -->
  <g transform="translate(0, 3920)">
    <rect y="0" width="1440" height="280" fill="#080B1A"/>
    <line x1="80" y1="0" x2="1360" y2="0" stroke="#1E293B" stroke-width="1"/>

    <!-- Footer Content -->
    <g transform="translate(80, 40)">
      <!-- Brand -->
      <g>
        <rect width="36" height="36" rx="8" fill="url(#heroGrad)"/>
        <text x="18" y="25" font-family="system-ui, -apple-system, sans-serif" font-size="18" font-weight="700" fill="#FFFFFF" text-anchor="middle">O</text>
        <text x="48" y="28" font-family="system-ui, -apple-system, sans-serif" font-size="20" font-weight="700" fill="#E2E8F0">OpenClaw</text>
        <text x="0" y="65" font-family="system-ui, -apple-system, sans-serif" font-size="13" fill="#475569">让 AI 赋能每一个企业</text>
      </g>

      <!-- Links Column 1 -->
      <g transform="translate(400, 0)" font-family="system-ui, -apple-system, sans-serif" font-size="14">
        <text y="0" font-weight="600" fill="#94A3B8" font-size="13" letter-spacing="1">产品</text>
        <text y="30" fill="#64748B">AI 助手</text>
        <text y="55" fill="#64748B">技能市场</text>
        <text y="80" fill="#64748B">流程优化</text>
        <text y="105" fill="#64748B">API 文档</text>
      </g>

      <!-- Links Column 2 -->
      <g transform="translate(600, 0)" font-family="system-ui, -apple-system, sans-serif" font-size="14">
        <text y="0" font-weight="600" fill="#94A3B8" font-size="13" letter-spacing="1">资源</text>
        <text y="30" fill="#64748B">开发者文档</text>
        <text y="55" fill="#64748B">使用教程</text>
        <text y="80" fill="#64748B">博客</text>
        <text y="105" fill="#64748B">社区</text>
      </g>

      <!-- Links Column 3 -->
      <g transform="translate(800, 0)" font-family="system-ui, -apple-system, sans-serif" font-size="14">
        <text y="0" font-weight="600" fill="#94A3B8" font-size="13" letter-spacing="1">公司</text>
        <text y="30" fill="#64748B">关于我们</text>
        <text y="55" fill="#64748B">合作伙伴</text>
        <text y="80" fill="#64748B">联系我们</text>
        <text y="105" fill="#64748B">加入我们</text>
      </g>

      <!-- Links Column 4 -->
      <g transform="translate(1000, 0)" font-family="system-ui, -apple-system, sans-serif" font-size="14">
        <text y="0" font-weight="600" fill="#94A3B8" font-size="13" letter-spacing="1">法律</text>
        <text y="30" fill="#64748B">隐私政策</text>
        <text y="55" fill="#64748B">服务条款</text>
        <text y="80" fill="#64748B">安全合规</text>
      </g>
    </g>

    <!-- Bottom Bar -->
    <line x1="80" y1="200" x2="1360" y2="200" stroke="#1E293B" stroke-width="1"/>
    <text x="80" y="235" font-family="system-ui, -apple-system, sans-serif" font-size="13" fill="#475569">© 2026 OpenClaw. All rights reserved.</text>

    <!-- Social icons (simple circles as placeholders) -->
    <g transform="translate(1200, 218)">
      <circle cx="0" cy="0" r="14" fill="#1E293B" stroke="#334155" stroke-width="1"/>
      <text x="0" y="4" font-family="system-ui, -apple-system, sans-serif" font-size="10" fill="#64748B" text-anchor="middle">G</text>
      <circle cx="40" cy="0" r="14" fill="#1E293B" stroke="#334155" stroke-width="1"/>
      <text x="40" y="4" font-family="system-ui, -apple-system, sans-serif" font-size="10" fill="#64748B" text-anchor="middle">X</text>
      <circle cx="80" cy="0" r="14" fill="#1E293B" stroke="#334155" stroke-width="1"/>
      <text x="80" y="4" font-family="system-ui, -apple-system, sans-serif" font-size="10" fill="#64748B" text-anchor="middle">W</text>
      <circle cx="120" cy="0" r="14" fill="#1E293B" stroke="#334155" stroke-width="1"/>
      <text x="120" y="4" font-family="system-ui, -apple-system, sans-serif" font-size="10" fill="#64748B" text-anchor="middle">D</text>
    </g>
  </g>

</svg>
